<svg xmlns="http://www.w3.org/2000/svg" width="100" height="100" viewBox="0 0 100 100"><defs><style>.a{fill:#fff;}.b{fill:none;}</style></defs><g transform="translate(-8469 -1124)"><path class="a" d="M33.406,6a8.838,8.838,0,1,0,8.838,8.838A8.838,8.838,0,0,0,33.406,6M15.73,12.393a7.365,7.365,0,1,0,6.157,11.372,14.313,14.313,0,0,1-3.211-8.926,8.919,8.919,0,0,1,.118-1.768,7.17,7.17,0,0,0-3.064-.678m35.352,0a7.17,7.17,0,0,0-3.064.678,8.919,8.919,0,0,1,.118,1.768,14.313,14.313,0,0,1-3.211,8.926,7.357,7.357,0,1,0,6.157-11.372M33.406,29.568c-5.892,0-17.676,2.946-17.676,8.838V44.3H51.083V38.406c0-5.892-11.784-8.838-17.676-8.838M11.812,32.426C6.892,33.28,1,35.578,1,39.379V44.3H9.838V38.406a10.669,10.669,0,0,1,1.974-5.98m43.189,0a10.669,10.669,0,0,1,1.974,5.98V44.3h8.838v-4.92C65.813,35.578,59.921,33.28,55,32.426Z" transform="translate(8486 1149)"/><rect class="b" width="100" height="100" transform="translate(8469 1124)"/></g></svg>