<svg xmlns="http://www.w3.org/2000/svg" width="200" height="200" viewBox="0 0 200 200"><defs><style>.a{fill:#fff;}.b{fill:none;}</style></defs><g transform="translate(-8791 -1146)"><path class="a" d="M79.727,50.06a25.933,25.933,0,0,1,21.936,39.727L119.4,107.635l-8,8L93.43,97.963a25.911,25.911,0,1,1-13.7-47.9m0,11.515A14.394,14.394,0,1,0,94.12,75.969,14.394,14.394,0,0,0,79.727,61.575M48.06,4A23.03,23.03,0,0,1,71.09,27.03a23.267,23.267,0,0,1-4.721,13.991A36.578,36.578,0,0,0,53.3,49.484l-5.239.576A23.03,23.03,0,0,1,48.06,4M2,96.12V84.605C2,72.4,21.057,62.381,45.181,61.575A37.773,37.773,0,0,0,42.3,75.969,38.339,38.339,0,0,0,48.06,96.12Z" transform="translate(8830 1185.924)"/><rect class="b" width="200" height="200" transform="translate(8791 1146)"/></g></svg>