<svg xmlns="http://www.w3.org/2000/svg" width="200" height="200" viewBox="0 0 200 200"><defs><style>.a{fill:#fff;}.b{fill:none;}</style></defs><g transform="translate(-8663 -1141)"><path class="a" d="M62.706,2a11.212,11.212,0,0,1,5.61,20.924v7.124h5.61a39.268,39.268,0,0,1,39.268,39.268h5.61a5.61,5.61,0,0,1,5.61,5.61V91.755a5.61,5.61,0,0,1-5.61,5.61h-5.61v5.61a11.219,11.219,0,0,1-11.219,11.219H23.439a11.219,11.219,0,0,1-11.219-11.219v-5.61H6.61A5.61,5.61,0,0,1,1,91.755V74.926a5.61,5.61,0,0,1,5.61-5.61h5.61A39.268,39.268,0,0,1,51.487,30.048H57.1V22.924A11.212,11.212,0,0,1,62.706,2M37.463,63.706A14.024,14.024,0,1,0,51.487,77.73,14.024,14.024,0,0,0,37.463,63.706m50.487,0A14.024,14.024,0,1,0,101.974,77.73,14.024,14.024,0,0,0,87.95,63.706Z" transform="translate(8700 1183)"/><rect class="b" width="200" height="200" transform="translate(8663 1141)"/></g></svg>